<svg width="38" height="34" viewBox="0 0 38 34" fill="none" xmlns="http://www.w3.org/2000/svg">
<path d="M17.8739 0.971186C18.0931 0.230317 19.1424 0.230314 19.3616 0.971183L21.559 8.39813C21.699 8.8714 22.2396 9.0953 22.6732 8.85966L29.4787 5.16182C30.1576 4.79295 30.8995 5.53493 30.5307 6.2138L26.8328 13.0193C26.5972 13.4529 26.8211 13.9935 27.2944 14.1335L34.7213 16.3309C35.4622 16.5501 35.4622 17.5994 34.7213 17.8186L27.2944 20.016C26.8211 20.1561 26.5972 20.6966 26.8328 21.1303L30.5307 27.9357C30.8995 28.6146 30.1576 29.3566 29.4787 28.9877L22.6732 25.2899C22.2396 25.0542 21.699 25.2781 21.559 25.7514L19.3616 33.1783C19.1424 33.9192 18.0931 33.9192 17.8739 33.1783L15.6765 25.7514C15.5364 25.2781 14.9959 25.0542 14.5622 25.2899L7.75677 28.9877C7.0779 29.3566 6.33591 28.6146 6.70479 27.9357L10.4026 21.1303C10.6383 20.6966 10.4144 20.1561 9.9411 20.016L2.51415 17.8186C1.77329 17.5994 1.77328 16.5501 2.51415 16.3309L9.9411 14.1335C10.4144 13.9935 10.6383 13.4529 10.4026 13.0193L6.70479 6.2138C6.33592 5.53493 7.0779 4.79295 7.75677 5.16182L14.5622 8.85966C14.9959 9.09529 15.5364 8.8714 15.6765 8.39813L17.8739 0.971186Z" fill="#E94D35"/>
</svg>
