<svg width="38" height="39" viewBox="0 0 38 39" fill="none" xmlns="http://www.w3.org/2000/svg">
<path d="M17.8739 3.97119C18.0931 3.23032 19.1424 3.23031 19.3616 3.97118L21.559 11.3981C21.699 11.8714 22.2396 12.0953 22.6732 11.8597L29.4787 8.16182C30.1576 7.79295 30.8995 8.53493 30.5307 9.2138L26.8328 16.0193C26.5972 16.4529 26.8211 16.9935 27.2944 17.1335L34.7213 19.3309C35.4622 19.5501 35.4622 20.5994 34.7213 20.8186L27.2944 23.016C26.8211 23.1561 26.5972 23.6966 26.8328 24.1303L30.5307 30.9357C30.8995 31.6146 30.1576 32.3566 29.4787 31.9877L22.6732 28.2899C22.2396 28.0542 21.699 28.2781 21.559 28.7514L19.3616 36.1783C19.1424 36.9192 18.0931 36.9192 17.8739 36.1783L15.6765 28.7514C15.5364 28.2781 14.9959 28.0542 14.5622 28.2899L7.75677 31.9877C7.0779 32.3566 6.33591 31.6146 6.70479 30.9357L10.4026 24.1303C10.6383 23.6966 10.4144 23.1561 9.9411 23.016L2.51415 20.8186C1.77329 20.5994 1.77328 19.5501 2.51415 19.3309L9.9411 17.1335C10.4144 16.9935 10.6383 16.4529 10.4026 16.0193L6.70479 9.2138C6.33592 8.53493 7.0779 7.79295 7.75677 8.16182L14.5622 11.8597C14.9959 12.0953 15.5364 11.8714 15.6765 11.3981L17.8739 3.97119Z" fill="#E94D35"/>
</svg>
